<svg width="327" height="353" viewBox="0 0 327 353" fill="none" xmlns="http://www.w3.org/2000/svg">
<g clip-path="url(#clip0_509_1725)">
<path d="M286.028 244.459C291.187 264.393 296.394 284.316 301.492 304.25C306.543 323.991 291.912 342.512 271.615 341.57C260.307 341.05 249.047 339.468 237.775 338.332C228.4 337.39 219.024 336.411 209.649 335.445C208.646 334.43 209.383 333.487 209.951 332.775C215.883 325.272 220.075 316.561 226.225 309.204C227.373 307.826 228.581 306.497 230.067 304.697C227.216 305.326 224.836 305.966 222.455 306.57C221.586 306.787 220.716 307.114 219.798 306.957C219.049 306.824 218.505 306.401 218.348 305.615C218.215 304.939 218.565 304.468 219.061 304.069C219.87 303.429 220.861 303.175 221.839 302.97C226.056 302.051 230.212 300.88 234.428 299.901C247.404 296.905 258.821 285.548 260.742 273.672C261.213 270.797 261.249 267.861 261.66 264.973C262.119 261.748 261.213 259.114 258.857 256.83C254.737 252.844 250.98 248.518 247.102 244.302C245.531 242.586 244.142 242.309 242.197 243.734C235.008 249.014 227.3 253.52 220.365 259.259C213.358 265.07 205.3 269.588 197.797 274.82C194.741 276.946 191.587 278.915 188.555 281.066C185.426 283.289 184.387 283.047 183.009 279.556C180.255 272.536 177.392 265.553 174.649 258.522C167.811 240.992 161.057 223.437 153.845 206.076C150.051 196.967 143.636 190.648 133.053 189.549C127.193 188.933 121.237 188.546 115.534 186.746C114.193 186.323 112.84 185.9 111.777 184.922C111.233 184.426 110.823 183.81 111.101 183.061C111.391 182.3 112.103 182.155 112.852 182.143C113.154 182.143 113.456 182.155 113.746 182.252C125.586 186.033 138.163 185.828 150.1 189.126C152.709 189.851 155.379 190.37 157.989 191.119C166.059 193.403 171.508 199.141 176.522 205.4C177.271 206.33 178.141 207.635 176.969 208.625C175.628 209.761 174.601 208.384 173.683 207.514C172.74 206.608 171.955 205.545 171.145 204.53C165.491 197.414 157.844 194.067 148.746 192.726C156.684 199.673 159.161 209.387 162.761 218.436C170.239 237.222 177.633 256.033 185.1 274.82C186.368 278.009 186.586 278.094 189.304 276.245C193.883 273.153 198.341 269.878 203.016 266.931C204.962 265.71 205.07 264.321 204.285 262.34C196.939 243.613 189.388 224.972 181.221 206.584C179.18 201.993 177.198 197.365 174.975 192.859C173.139 189.114 173.779 188.184 177.851 188.365C178.757 188.401 179.651 188.389 180.545 188.22C183.384 187.676 185.305 185.9 185.74 183.448C186.175 180.947 185.039 178.772 182.297 177.359C178.274 175.293 174.287 173.166 170.203 171.209C168.947 170.605 167.618 170.049 166.881 168.72C166.651 164.866 167.461 161.242 169.249 157.823C170.01 157.17 170.88 156.711 171.737 156.216C172.197 156.023 172.692 155.878 173.187 155.841C181.922 155.02 184.157 149.656 184.87 142.999C185.317 138.855 184.64 134.771 184 130.712C183.227 125.747 182.309 120.805 181.318 115.888C181.004 114.305 180.666 112.735 180.992 111.116C183.191 107.117 183.106 103.323 180.146 99.6626C179.119 98.4061 179.445 96.8355 179.699 95.3133C180.509 90.3116 177.875 87.2066 172.776 87.122C169.067 87.0616 165.395 87.6536 161.722 88.0282C158.4 88.3664 155.669 90.0095 153.651 92.7399C152.818 93.8635 151.912 94.9508 150.559 95.5187C148.07 95.5791 147.369 98.2491 145.412 99.0827C137.293 103.456 135.384 107.298 136.798 116.383C137.474 120.721 138.248 125.058 138.598 129.443C137.813 135.931 137.68 142.491 136.665 148.955C136.496 150.042 136.447 151.166 135.94 152.181C134.321 154.029 132.763 152.628 131.385 151.903C127.894 150.067 124.426 148.448 120.295 148.701C112.997 149.136 107.694 152.483 104.782 159.2C101.798 166.062 102.74 172.611 107.428 178.41C111.004 182.831 111.197 182.771 106.522 185.912C103.199 188.135 100.578 190.938 98.6083 194.418C97.9921 195.505 97.5572 196.882 95.9504 197.015C89.8855 194.913 84.0622 192.207 78.1302 189.754C75.0494 188.474 71.9687 187.386 68.5496 187.483C58.9811 187.773 51.4543 197.003 52.9645 206.487C56.746 230.191 60.4067 253.919 64.1399 277.647C66.1454 290.441 68.1388 303.247 70.1444 316.054C70.386 317.576 71.0626 319.231 69.6007 320.584C50.669 320.017 36.425 305.797 35.2289 286.925C34.7215 278.927 33.1147 271.014 31.9911 263.052C30.1064 249.835 28.1975 236.618 26.2886 223.401C24.4039 210.389 22.5071 197.365 20.6103 184.354C18.6773 171.04 16.7563 157.726 14.8112 144.412C12.8782 131.195 10.9089 117.99 8.98795 104.785C7.067 91.568 5.20645 78.3388 3.30966 65.1217C2.5002 59.4555 1.90821 53.7409 0.796716 48.1351C-2.42904 31.6077 7.21198 13.1472 22.785 5.10093C28.9707 1.91142 35.4947 0.292505 42.4657 0.292505C86.7685 0.316668 131.083 0.256261 175.386 0.316668C200.032 0.352912 221.284 15.8051 228.943 39.219C235.661 59.7454 242.245 80.3202 248.817 100.895C249.47 102.925 250.521 104.35 252.333 105.51C263.798 112.94 275.203 120.455 286.62 127.957C287.019 128.223 287.381 128.561 288.203 129.226C285.485 130.265 283.141 131.207 280.773 132.077C274.358 134.409 267.954 136.777 261.503 138.988C259.376 139.713 258.809 140.607 259.413 142.914C265.562 166.123 271.579 189.355 277.632 212.576C278.489 215.874 279.299 219.185 280.132 222.495C279.891 223.244 279.275 223.631 278.598 223.812C271.023 225.684 264.813 230.239 258.325 234.238C257.468 234.758 256.658 235.362 255.68 235.664C253.227 235.857 251.463 237.355 249.627 238.757C248.346 239.735 248.443 240.726 249.518 241.753C254.012 246.054 257.842 250.983 262.324 255.308C263.327 256.275 264.052 256.311 265.127 255.417C268.16 252.904 268.329 252.348 266.384 248.869C265.78 247.781 265.574 246.815 266.662 245.921C272.328 242.864 278.441 243.046 284.578 243.517C285.182 243.565 285.726 243.891 286.052 244.459H286.028Z" fill="white"/>
<path d="M96.263 196.665C98.8726 191.192 102.521 186.625 108.006 183.858C110.072 182.819 109.83 182.227 108.369 180.778C100.951 173.408 100.117 163.175 106.134 154.851C111.147 147.916 121.465 145.524 129.04 149.535C131.07 150.61 133.003 151.891 135.262 152.459C136.373 154.682 135.842 156.723 134.573 158.681C131.046 160.432 127.337 159.188 124.062 159.502C126.95 161.121 129.994 163.211 133.232 164.987C142.16 170.158 151.258 175.003 160.283 179.98C162.989 181.478 163.303 181.285 163.98 178.168C164.463 175.909 164.994 173.674 165.611 171.451C165.901 170.412 166.058 169.24 167.338 168.841C172.545 171.402 177.777 173.915 182.96 176.525C185.908 178.011 187.297 180.56 186.898 183.339C186.451 186.408 184.216 188.631 180.87 189.15C179.698 189.331 178.465 189.223 177.269 189.271C176.436 189.295 175.409 188.365 174.805 189.428C174.309 190.31 175.191 191.119 175.566 191.905C186.596 215.27 196.141 239.264 205.685 263.258C206.301 264.816 206.374 265.892 204.694 266.979C199.137 270.579 193.64 274.3 188.239 278.142C186.234 279.568 185.605 278.831 184.856 276.946C175.687 253.677 166.432 230.432 157.299 207.139C154.943 201.123 151.427 195.988 146.329 191.711C148.781 191.349 155.45 193.004 159.763 194.611C165.586 196.786 169.44 201.256 173.379 205.702C174.309 206.753 175.433 209.121 176.508 208.215C177.922 207.019 175.602 205.738 174.817 204.687C168.571 196.29 160.077 191.82 149.832 189.899C140.179 188.087 130.514 186.504 120.8 185.175C118.505 184.861 116.282 184.245 114.156 183.315C113.346 182.964 112.186 182.179 111.751 183.146C111.172 184.438 112.754 184.644 113.564 185.018C116.971 186.601 120.68 187 124.34 187.543C128.895 188.22 133.51 188.57 138.017 189.476C143.888 190.66 147.827 194.792 151.21 199.371C155.873 205.69 157.77 213.337 160.645 220.489C168.631 240.339 176.375 260.286 184.24 280.184C184.663 281.271 184.856 282.673 186.681 281.404C196.177 274.832 205.963 268.658 215.169 261.723C224.133 254.97 233.339 248.615 242.57 242.272C244.442 240.98 245.505 241.125 246.991 242.78C251.957 248.301 257.079 253.689 262.154 259.114C262.577 259.561 262.951 259.875 262.879 260.624C262.468 264.913 262.311 269.238 261.743 273.515C260.414 283.603 254.373 290.103 245.952 295.346C238.933 299.72 231.322 301.689 223.529 303.489C222.357 303.755 221.173 303.997 220.038 304.359C219.446 304.552 218.479 304.709 218.926 305.736C219.228 306.413 219.869 306.292 220.497 306.123C223.408 305.362 226.332 304.661 229.232 303.876C230.114 303.634 230.959 303.405 232.433 303.634C229.51 306.787 226.84 309.675 224.52 312.864C219.434 319.847 215.398 327.555 209.913 334.273C209.696 334.551 209.72 335.022 209.636 335.408C208.512 335.541 208.029 336.423 207.376 337.196C201.662 343.926 194.667 348.783 186.197 351.428C176.508 354.461 168.498 350.957 161.273 344.82C156.803 341.014 153.288 336.387 150.424 331.264C149.941 330.407 149.228 329.682 148.612 328.909C147.416 327.785 146.655 326.383 145.966 324.922C143.804 320.294 141.17 315.921 138.645 310.968C136.313 315.558 134.658 319.968 132.652 324.209C132.133 325.296 131.758 326.468 130.562 327.048C123.156 326.275 115.69 326.094 108.344 324.777C105.904 324.342 103.343 325.381 100.987 324.124C103.621 322.856 103.693 320.717 103.367 318.12C99.3679 286.394 95.5381 254.656 91.7083 222.906C90.8263 215.596 91.1525 208.227 93.5205 201.111C94.0762 199.419 94.3662 197.535 96.2388 196.628L96.263 196.665Z" fill="#FB6542"/>
<path d="M96.2636 196.665C91.878 206.91 92.023 217.517 93.4123 228.33C96.1065 249.231 98.5107 270.168 101.06 291.094C102.232 300.759 103.476 310.412 104.636 320.077C105.119 324.1 105.059 324.112 101 324.161C91.4914 323.146 81.9953 322.131 72.4872 321.104C71.5086 320.995 70.4696 321.201 69.6118 320.524C68.9715 313.227 67.4976 306.05 66.3982 298.826C63.8973 282.371 61.3602 265.928 58.7868 249.497C56.89 237.416 54.7879 225.37 53.0361 213.265C52.3474 208.48 50.801 203.769 52.4924 198.706C55.6215 189.404 65.2867 183.919 74.5169 187.193C81.5967 189.706 88.4106 192.968 95.3333 195.916C95.6837 196.061 95.9495 196.411 96.2515 196.665H96.2636Z" fill="#AA452E"/>
<path d="M286.028 244.459C279.299 244.399 272.521 243.94 266.154 246.839C265.043 247.528 264.173 246.863 263.557 246.126C261.007 243.106 258.084 240.4 255.776 237.162C255.378 236.594 254.967 236.014 255.305 235.253C263.098 230.058 270.685 224.476 280.12 222.495C285.617 221.383 291.09 221.915 296.527 222.809C299.825 223.353 303.111 223.389 306.385 222.954C307.799 222.761 309.104 222.628 309.563 224.259C309.998 225.829 308.947 226.748 307.606 227.17C303.317 228.524 298.992 229.792 294.679 231.061C294.111 231.23 293.47 231.181 292.939 232.184C298.702 234.903 304.573 237.15 310.831 238.31C315.567 239.336 320.074 241.161 324.701 242.538C324.87 246.827 324.858 247.02 320.025 246.694C311.375 246.102 302.749 245.208 294.111 244.544C291.429 244.338 288.722 244.459 286.028 244.423V244.459Z" fill="#E8AD9D"/>
<path d="M130.586 327.072C133.123 321.213 135.66 315.353 138.475 308.829C142.075 315.836 146.074 321.998 148.636 328.933C142.619 328.316 136.603 327.688 130.586 327.072Z" fill="#FB6542"/>
<path d="M324.711 242.562C323.455 242.961 322.235 242.949 320.978 242.441C317.595 241.076 313.959 240.351 310.842 238.334C315.372 237.814 319.625 239.868 324.119 239.747C324.832 239.735 325.847 240.049 326.077 240.895C326.33 241.849 325.46 242.236 324.711 242.562Z" fill="#DA8A7D"/>
<path d="M167.35 168.841C166.372 172.719 165.309 176.585 164.451 180.5C164.076 182.191 163.617 182.819 161.902 181.853C152.273 176.477 142.607 171.161 132.954 165.821C131.831 163.163 132.399 160.783 134.163 158.608C134.537 156.554 134.9 154.512 135.274 152.459C136.108 144.618 136.953 136.789 137.787 128.948C138.017 128.755 138.21 128.453 138.476 128.38C142.052 127.341 142.861 125.179 141.895 121.603C141.206 119.041 142.318 118.039 144.879 117.688C146.546 118.413 146.631 120.104 146.945 121.494C149.047 130.7 153.855 138.215 160.464 144.859C162.953 147.348 164.934 150.211 168.631 150.985C169.779 151.226 171.168 151.987 171.82 150.501C172.473 149.015 171.096 148.399 169.996 147.892C167.991 146.962 166.009 145.947 163.774 145.681C161.672 145.427 160.005 144.437 158.591 142.89C153.505 137.333 149.53 131.159 147.561 123.801C147.295 122.811 147.138 121.844 147.235 120.829C148.274 116.951 148.854 112.976 149.772 109.074C151.463 101.813 155.547 99.2881 162.808 100.943C164.862 101.414 166.831 102.176 168.861 102.695C170.854 103.202 172.799 103.384 174.708 102.405C176.738 101.366 178.115 102.176 179.214 103.964C180.543 106.126 181.594 108.373 181.643 110.971C182.815 117.676 184.011 124.369 185.134 131.087C185.775 134.953 186.246 138.855 185.92 142.769C185.219 151.287 181.993 156.88 171.579 156.808C168.812 157.158 166.541 155.805 164.318 154.537C161.793 153.099 159.352 151.444 157.311 149.366C155.366 147.384 153.638 145.186 151.983 142.938C155.837 148.738 160.778 153.28 167.23 156.071C168.196 156.494 169.404 156.711 169.742 158.004C168.945 161.616 168.148 165.241 167.35 168.853V168.841Z" fill="#E8AD9D"/>
<path d="M181.643 110.959C179.976 108.917 179.746 106.162 178.188 104.024C177.27 102.768 176.702 102.043 175.192 103.263C173.585 104.568 171.664 104.374 169.743 103.964C166.807 103.323 164.053 102.091 161.068 101.608C155.873 100.762 152.503 102.731 151.089 107.805C149.857 112.239 149.627 116.903 147.936 121.228C145.363 119.827 145.87 117.06 145.508 114.909C144.819 110.838 144.239 106.694 145.302 102.502C146.063 99.5055 147.078 96.8114 149.954 95.2408C154.569 88.2335 161.491 86.2159 169.368 86.1676C171.362 86.1676 173.367 85.6602 175.361 86.0951C179.154 86.9166 181.861 91.2901 180.713 95.1562C180.097 97.2342 180.423 98.6357 181.776 100.279C184.579 103.686 184.422 107.383 181.655 110.947L181.643 110.959Z" fill="#E26D4D"/>
<path d="M255.305 235.253C258.193 238.624 261.08 242.006 263.98 245.377C264.56 246.054 265.176 246.718 266.142 246.839C266.275 247.214 266.324 247.636 266.541 247.951C267.495 249.304 269.839 250.608 269.187 251.962C268.148 254.112 265.985 255.719 264.246 257.507C263.521 258.256 263.074 257.592 262.578 257.048C257.746 251.853 252.925 246.646 248.02 241.511C246.764 240.194 246.945 239.373 248.371 238.467C249.796 237.548 251.161 236.534 252.551 235.555C253.408 234.951 254.29 234.528 255.293 235.253H255.305Z" fill="#FB6542"/>
<path d="M144.976 118.063C141.871 118.196 142.535 120.503 142.789 122.231C143.587 127.619 143.272 128.139 137.775 128.96C137.014 123.741 135.927 118.534 135.552 113.29C134.972 105.015 137.86 101.004 145.677 98.1523C146.776 99.7592 145.616 101.269 145.254 102.695C144.191 106.972 145.109 111.14 145.483 115.344C145.58 116.359 145.87 117.301 144.964 118.075L144.976 118.063Z" fill="#E26D4E"/>
<path d="M144.977 118.063C144.723 114.257 143.757 110.524 143.962 106.682C144.119 103.758 144.771 100.931 145.69 98.1524C147.115 97.198 147.188 94.2259 149.954 95.2529C143.636 103.48 145.605 112.336 147.937 121.24C149.701 130.362 154.425 137.743 161.142 144.002C162.326 145.101 163.643 144.364 164.815 144.787C167.074 145.596 169.309 146.502 171.508 147.469C173.103 148.17 173.876 149.426 173.09 151.118C172.378 152.652 171.012 152.894 169.514 152.314C167.376 151.468 165.262 150.538 163.111 149.728C161.371 149.076 161.879 146.974 160.828 146.104C151.972 138.758 147.562 128.948 144.977 118.075V118.063Z" fill="#030202"/>
<path d="M169.742 157.992C161.695 155.201 155.534 150.03 150.907 142.962C150.484 142.31 149.372 141.428 150.52 140.715C151.414 140.16 151.813 141.38 152.26 141.96C155.691 146.539 159.472 150.695 164.462 153.703C166.733 155.068 169.379 155.406 171.59 156.796C171.433 157.895 170.648 158.016 169.754 157.992H169.742Z" fill="#DA887A"/>
<path d="M134.163 158.62C133.764 161.024 133.366 163.429 132.955 165.833C129.161 163.61 125.368 161.399 121.574 159.176C121.574 158.995 121.598 158.801 121.61 158.62H134.163Z" fill="#FB6542"/>
<path d="M179.421 127.522C179.349 130.253 177.597 131.521 175.265 132.295C174.758 132.464 174.214 132.56 173.924 132.065C173.501 131.364 174.106 130.99 174.577 130.627C178.141 127.873 178.249 127.51 176.316 123.451C175.459 121.639 174.48 119.887 174.057 117.918C173.912 117.241 173.9 116.359 174.782 116.202C175.531 116.069 175.567 116.879 175.785 117.422C176.776 119.923 177.802 122.412 178.854 124.889C179.216 125.734 179.458 126.58 179.421 127.522Z" fill="#DB897B"/>
<path d="M168.391 134.989C171.097 137.526 174.335 137.852 177.537 138.384C178.153 138.48 179.107 138.504 179.156 139.411C179.204 140.208 178.443 140.534 177.827 140.872C174.673 142.648 168.355 140.22 168.379 134.989H168.391Z" fill="#F3F1F0"/>
<path d="M161.914 117.096C163.219 115.598 164.79 115.26 166.167 114.644C166.675 114.414 167.387 114.33 167.665 115.042C167.883 115.61 167.436 115.997 166.989 116.19C165.515 116.83 164.162 118.099 161.902 117.096H161.914Z" fill="#E37355"/>
<path d="M179.94 111.43C179.323 112.517 178.151 112.807 177.004 113.073C176.472 113.194 175.892 112.711 176.025 112.227C176.424 110.79 177.91 110.995 178.949 110.572C179.517 110.343 179.867 110.717 179.927 111.43H179.94Z" fill="#E3785B"/>
<path d="M177.621 119.126C178.189 117.906 179.143 117.99 180.46 118.111C179.747 119.585 178.817 119.561 177.621 119.126Z" fill="#1A1311"/>
<path d="M169.646 120.829C168.812 121.917 168.027 122.086 166.867 121.59C167.761 120.829 168.462 120.129 169.646 120.829Z" fill="#191210"/>
</g>
<defs>
<clipPath id="clip0_509_1725">
<rect width="325.922" height="352.284" fill="white" transform="translate(0.191406 0.29248)"/>
</clipPath>
</defs>
</svg>
