<svg width="390" height="286" viewBox="0 0 390 286" fill="none" xmlns="http://www.w3.org/2000/svg">
<g clip-path="url(#clip0_508_1032)">
<rect y="0.335693" width="390" height="285.433" rx="17" fill="#89A4E4" fill-opacity="0.78"/>
<g clip-path="url(#clip1_508_1032)">
<path d="M161.174 272.19C161.174 272.19 159.99 287.986 160.779 296.278C161.569 304.571 165.913 330.238 165.913 330.238L174.6 330.633C174.6 330.633 177.759 298.648 178.549 290.75C179.339 282.852 179.339 271.401 179.339 271.401L161.174 272.19Z" fill="#E8AD9D" stroke="#263238" stroke-width="0.789767" stroke-linecap="round" stroke-linejoin="round"/>
<path d="M179.275 276.661C179.331 273.944 179.338 271.946 179.338 271.503L179.086 271.417L161.174 272.198C161.174 272.198 160.818 276.937 160.629 282.584L179.275 276.661Z" fill="#263238" stroke="#263238" stroke-width="0.789767" stroke-linecap="round" stroke-linejoin="round"/>
<path d="M212.604 272.19C212.604 272.19 213.789 287.986 212.999 296.278C212.209 304.571 207.865 330.238 207.865 330.238L199.178 330.633C199.178 330.633 196.019 298.648 195.229 290.75C194.439 282.852 194.439 271.401 194.439 271.401L212.604 272.19Z" fill="#E8AD9D" stroke="#263238" stroke-width="0.789767" stroke-linecap="round" stroke-linejoin="round"/>
<path d="M212.604 272.19L194.439 271.401C194.439 271.401 194.439 276.629 194.684 282.457L212.888 276.676C212.738 273.983 212.604 272.182 212.604 272.182V272.19Z" fill="#263238" stroke="#263238" stroke-width="0.789767" stroke-linecap="round" stroke-linejoin="round"/>
<path d="M175.651 111.797C175.651 111.797 137.829 119.56 132.167 123.24C124.537 128.2 120.344 134.684 124.158 143.072C127.973 151.459 133.691 149.555 133.691 149.555C133.691 149.555 129.11 205.242 133.691 217.065C138.272 228.888 159.248 231.178 167.635 228.888C176.022 226.597 202.724 221.258 205.015 213.25C207.305 205.242 203.111 124.765 201.579 117.136C200.047 109.506 191.281 103.789 175.643 111.797H175.651Z" fill="#263238" stroke="#263238" stroke-width="0.789767" stroke-linecap="round" stroke-linejoin="round"/>
<path d="M124.158 143.079C127.973 151.467 133.691 149.563 133.691 149.563C133.691 149.563 129.11 205.25 133.691 217.073C138.271 228.895 159.248 231.186 167.635 228.895C176.022 226.605 202.724 221.266 205.015 213.258C205.307 212.223 205.496 209.981 205.599 206.853C197.275 210.21 187.94 213.969 178.7 217.452C152.385 227.371 145.514 214.782 144.755 197.234C143.989 179.685 148.949 138.499 145.522 128.958C142.086 119.426 132.174 123.24 132.174 123.24C124.545 128.2 120.352 134.684 124.166 143.071L124.158 143.079Z" fill="#A3A3A3" stroke="#263238" stroke-width="0.789767" stroke-linecap="round" stroke-linejoin="round"/>
<path d="M133.699 149.563C133.699 149.563 142.473 148.797 142.853 139.265C143.232 129.732 137.514 125.918 131.409 130.49C125.304 135.071 127.973 142.313 131.409 143.079C134.844 143.845 139.417 136.216 136.748 134.692C134.078 133.168 132.554 136.216 132.554 138.507" stroke="#263238" stroke-width="0.789767" stroke-linecap="round" stroke-linejoin="round"/>
<path d="M156.83 197.163L150.512 274.955L224.75 274.56L212.903 193.609L156.83 197.163Z" fill="#A3A3A3" stroke="#263238" stroke-width="0.789767" stroke-linecap="round" stroke-linejoin="round"/>
<path d="M156.83 204.073C157.422 204.468 214.088 201.309 214.088 201.309L212.904 196.373L156.83 198.545V204.073Z" fill="#616161" stroke="#263238" stroke-width="0.789767" stroke-linecap="round" stroke-linejoin="round"/>
<path d="M190.789 274.56V218.486" stroke="#263238" stroke-width="0.789767" stroke-linecap="round" stroke-linejoin="round"/>
<path d="M190.789 230.333L199.871 223.62L191.144 235.063L190.789 230.333Z" fill="#263238" stroke="#263238" stroke-width="0.789767" stroke-linecap="round" stroke-linejoin="round"/>
<path d="M155.647 238.23L176.576 239.02V245.338L155.252 244.154" stroke="#263238" stroke-width="0.789767" stroke-linecap="round" stroke-linejoin="round"/>
<path d="M176.97 248.103L175.785 265.872H153.672L154.067 252.446" stroke="#263238" stroke-width="0.789767" stroke-linecap="round" stroke-linejoin="round"/>
<path d="M218.825 239.02L206.979 240.995V247.313L218.43 245.733" stroke="#263238" stroke-width="0.789767" stroke-linecap="round" stroke-linejoin="round"/>
<path d="M206.979 247.313V265.872L221.589 265.477" stroke="#263238" stroke-width="0.789767" stroke-linecap="round" stroke-linejoin="round"/>
<path d="M189.408 197.755L189.606 202.494L198.293 201.901L198.096 196.965L189.408 197.755Z" fill="#A3A3A3" stroke="#263238" stroke-width="0.789767" stroke-linecap="round" stroke-linejoin="round"/>
<path d="M206.982 126.873C206.982 126.873 195.135 122.53 187.238 124.504C179.34 126.478 174.602 130.032 174.602 130.032L175.391 198.347L212.905 196.373L206.982 126.873Z" fill="#263238" stroke="#263238" stroke-width="0.789767" stroke-linecap="round" stroke-linejoin="round"/>
<path d="M212.035 127.869C212.035 127.869 216.632 127.718 220.47 133.697C224.3 139.676 236.257 158.835 238.097 165.122C239.938 171.408 238.097 176.005 235.949 176.621C233.801 177.237 230.587 176.621 230.587 176.621C230.587 176.621 226.598 173.557 223.076 170.334C219.554 167.112 215.257 160.217 215.257 160.217L212.035 127.869Z" fill="#FBA642" stroke="#263238" stroke-width="0.789767" stroke-linecap="round" stroke-linejoin="round"/>
<path d="M204.02 150.171L207.116 227.829L225.281 221.25C225.281 221.25 216.064 148.063 214.224 138.586C212.384 129.108 212.384 126.739 208.435 123.58C204.486 120.421 201.066 129.638 201.066 129.638L204.028 150.171H204.02Z" fill="#FBA642" stroke="#263238" stroke-width="0.789767" stroke-linecap="round" stroke-linejoin="round"/>
<path d="M209.216 135.829C209.216 135.829 214.934 161.386 214.934 162.531C214.934 163.676 220.651 183.128 220.651 183.128L217.982 159.483L212.027 127.876L206.973 126.881L209.208 135.829H209.216Z" fill="#263238" stroke="#263238" stroke-width="0.789767" stroke-linecap="round" stroke-linejoin="round"/>
<path d="M186.843 150.961C186.843 150.961 184.213 208.354 182.634 218.621C181.054 228.888 180.794 230.206 180.794 230.206C180.794 230.206 166.578 225.728 159.999 222.569C153.42 219.41 152.102 218.621 152.102 218.621C152.102 218.621 155 194.667 155.521 188.609C156.05 182.552 156.05 169.655 156.05 158.069C156.05 146.483 156.05 133.847 161.05 129.898C166.049 125.949 171.846 125.689 174.215 125.689C176.584 125.689 186.591 135.956 186.851 150.961H186.843Z" fill="#FBA642" stroke="#263238" stroke-width="0.789767" stroke-linecap="round" stroke-linejoin="round"/>
<path d="M161.538 125.531L177.941 155.281L148.957 195.709L154.296 194.185C154.296 194.185 181.756 158.717 182.522 155.281C183.288 151.846 166.119 124.385 166.119 124.385L161.538 125.531Z" fill="#263238" stroke="#263238" stroke-width="0.789767" stroke-linecap="round" stroke-linejoin="round"/>
<path d="M181.708 109.893C181.708 109.893 171.046 111.275 168.085 115.619C165.123 119.963 162.951 124.109 165.123 126.676C167.295 129.243 173.416 134.771 176.969 137.14C180.523 139.509 186.842 150.961 186.842 150.961V137.338C186.842 132.994 183.09 128.255 182.3 124.306C181.511 120.358 188.026 114.039 192.567 116.014C197.109 117.988 200.663 123.912 200.465 126.676C200.268 129.44 201.255 132.796 202.242 137.535C203.229 142.274 204.019 150.171 204.019 150.171C204.019 150.171 210.732 139.509 212.904 132.204C215.076 124.899 214.089 117.396 205.993 112.46C197.898 107.524 181.708 109.893 181.708 109.893Z" fill="#FBA642" stroke="#263238" stroke-width="0.789767" stroke-linecap="round" stroke-linejoin="round"/>
<path d="M209.484 115.169C208.505 114.205 207.36 113.297 205.993 112.46C197.898 107.524 181.708 109.893 181.708 109.893C181.708 109.893 171.046 111.275 168.085 115.619C167.737 116.124 167.405 116.63 167.089 117.127C166.734 119.26 167.066 121.819 168.874 124.701C173.297 131.746 182.474 135.118 186.826 137.077C186.684 132.804 183.074 128.176 182.3 124.306C181.511 120.358 188.026 114.039 192.567 116.014C197.109 117.988 200.662 123.912 200.465 126.676C200.268 129.44 201.255 132.796 202.242 137.535C202.297 137.811 202.353 138.096 202.408 138.388C202.747 138.064 203.079 137.717 203.427 137.338C208.56 131.612 210.14 125.294 210.14 119.765C210.14 118.13 209.895 116.59 209.484 115.169Z" fill="#A3A3A3" stroke="#263238" stroke-width="0.789767" stroke-linecap="round" stroke-linejoin="round"/>
<path d="M179.932 102.193C179.932 102.193 181.116 116.409 181.511 120.358C181.906 124.307 184.078 134.376 190.791 136.351C197.504 138.325 201.453 130.625 200.466 124.899C199.478 119.173 197.701 113.842 197.701 111.868C197.701 109.893 197.504 109.301 197.504 109.301L179.932 102.193Z" fill="#E8AD9D" stroke="#263238" stroke-width="0.789767" stroke-linecap="round" stroke-linejoin="round"/>
<path d="M197.504 109.301L179.932 102.193C179.932 102.193 180.832 113.005 181.322 118.391L197.693 111.481C197.67 109.822 197.504 109.293 197.504 109.293V109.301Z" fill="#263238" stroke="#263238" stroke-width="0.789767" stroke-linecap="round" stroke-linejoin="round"/>
<path d="M162.305 128.579C162.305 128.579 157.401 127.742 153.357 132.252C149.313 136.761 143.714 153.101 141.534 163.676C139.354 174.259 137.175 183.594 141.376 183.594C145.578 183.594 164.09 177.679 164.09 177.679V163.984" fill="#FBA642"/>
<path d="M162.305 128.579C162.305 128.579 157.401 127.742 153.357 132.252C149.313 136.761 143.714 153.101 141.534 163.676C139.354 174.259 137.175 183.594 141.376 183.594C145.578 183.594 164.09 177.679 164.09 177.679V163.984" stroke="#263238" stroke-width="0.789767" stroke-linecap="round" stroke-linejoin="round"/>
<path d="M171.822 158.938C172.92 157.508 173.883 155.881 174.357 154.341C174.981 152.32 176.537 151.538 178.093 151.388C179.649 151.23 185.09 149.99 185.406 151.08C185.722 152.17 186.18 153.102 185.714 153.567C185.248 154.033 185.09 154.657 185.09 154.657C185.09 154.657 186.954 160.415 186.488 162.437C186.022 164.458 183.218 166.014 181.662 166.48C180.107 166.946 176.221 166.788 175.597 166.946C174.973 167.104 168.284 170.216 168.284 170.216C168.284 170.216 167.51 162.918 167.51 162.903C167.494 162.776 169.769 161.244 169.958 161.054C170.574 160.446 171.222 159.72 171.822 158.938Z" fill="#E8AD9D" stroke="#263238" stroke-width="0.789767" stroke-linecap="round" stroke-linejoin="round"/>
<path d="M159.888 163.834L147.441 165.082" stroke="#263238" stroke-width="0.789767" stroke-linecap="round" stroke-linejoin="round"/>
<path d="M168.908 159.791L170.937 178.461L162.218 179.551L159.73 162.902L168.908 159.791Z" fill="#A3A3A3" stroke="#263238" stroke-width="0.789767" stroke-linecap="round" stroke-linejoin="round"/>
<path d="M222.769 178.303L219.705 164.048L226.6 165.43L222.769 178.303Z" fill="#616161" stroke="#263238" stroke-width="0.789767" stroke-linecap="round" stroke-linejoin="round"/>
<path d="M221.522 157.35C220.479 156 219.563 154.46 219.121 152.999C218.528 151.088 217.059 150.345 215.583 150.203C214.106 150.053 208.956 148.876 208.656 149.911C208.364 150.945 207.922 151.822 208.364 152.264C208.806 152.707 208.956 153.299 208.956 153.299C208.956 153.299 207.187 158.748 207.63 160.667C208.072 162.579 210.725 164.056 212.194 164.498C213.671 164.94 217.352 164.79 217.936 164.94C218.528 165.09 224.862 168.036 224.862 168.036C224.862 168.036 225.597 161.126 225.597 161.11C225.613 160.991 223.464 159.538 223.283 159.356C222.698 158.78 222.09 158.093 221.522 157.358V157.35Z" fill="#E8AD9D" stroke="#263238" stroke-width="0.789767" stroke-linecap="round" stroke-linejoin="round"/>
<path d="M223.378 157.761L222.77 178.303L233.036 177.229L231.812 158.835L223.378 157.761Z" fill="#A3A3A3" stroke="#263238" stroke-width="0.789767" stroke-linecap="round" stroke-linejoin="round"/>
<path d="M201.665 75.578C201.665 75.578 204.824 92.937 204.824 96.0882C204.824 99.2394 201.933 108.448 200.614 110.549C199.303 112.65 192.725 113.969 190.095 112.918C187.465 111.868 180.104 105.028 178.525 102.138C176.945 99.2473 176.424 96.6174 176.424 96.6174C176.424 96.6174 172.744 98.1969 169.853 93.9874C166.962 89.778 168.542 85.837 171.433 85.5764L174.062 86.3662C174.062 86.3662 169.332 78.2158 170.903 74.5355C172.483 70.8552 191.414 69.5363 195.355 69.5363C199.296 69.5363 201.665 75.5859 201.665 75.5859V75.578Z" fill="#E8AD9D" stroke="#263238" stroke-width="0.789767" stroke-linecap="round" stroke-linejoin="round"/>
<path d="M187.29 79.8507L183.096 81.7066C182.48 81.9751 182.235 82.7175 182.559 83.3019L182.717 83.5863C183.017 84.1312 183.704 84.3365 184.249 84.0443L188.285 81.904C188.854 81.6039 189.059 80.8931 188.743 80.3324C188.451 79.8191 187.819 79.6058 187.282 79.8507H187.29Z" fill="#263238" stroke="#263238" stroke-width="0.789767" stroke-linecap="round" stroke-linejoin="round"/>
<path d="M195.085 78.9345L195.061 79.0056C194.919 79.519 195.235 80.0402 195.749 80.1508L198.987 80.8774C199.563 81.0116 200.116 80.5694 200.116 79.9691C200.116 79.5427 199.824 79.1715 199.413 79.0688L196.199 78.2632C195.709 78.1448 195.212 78.4291 195.077 78.9188L195.085 78.9345Z" fill="#263238" stroke="#263238" stroke-width="0.789767" stroke-linecap="round" stroke-linejoin="round"/>
<path d="M186.582 96.9095C186.582 96.9095 191.55 100.337 196.865 99.1367" stroke="#263238" stroke-width="0.789767" stroke-linecap="round" stroke-linejoin="round"/>
<path d="M194.121 82.5199C194.121 82.5199 196.522 92.9764 196.688 93.8294C196.861 94.6823 194.974 97.4307 192.92 95.8828C190.867 94.3427 190.52 92.7948 190.52 92.7948" fill="#E8AD9D"/>
<path d="M194.121 82.5199C194.121 82.5199 196.522 92.9764 196.688 93.8294C196.861 94.6823 194.974 97.4307 192.92 95.8828C190.867 94.3427 190.52 92.7948 190.52 92.7948" stroke="#263238" stroke-width="0.789767" stroke-linecap="round" stroke-linejoin="round"/>
<path d="M188.776 87.606C189.053 88.5143 188.95 89.3435 188.539 89.4699C188.129 89.5962 187.576 88.9644 187.299 88.0562C187.023 87.148 187.126 86.3187 187.536 86.1924C187.947 86.066 188.5 86.6978 188.776 87.606Z" fill="#263238"/>
<path d="M198.917 86.2004C199.028 87.1402 198.775 87.9458 198.349 87.9931C197.922 88.0405 197.496 87.3218 197.385 86.382C197.275 85.4422 197.527 84.6366 197.954 84.5893C198.38 84.5419 198.807 85.2606 198.917 86.2004Z" fill="#263238"/>
<path d="M169.847 64.2764C169.847 64.2764 163.007 71.1158 165.637 76.8969C168.267 82.6779 174.838 93.4662 174.838 93.4662H176.149L175.888 88.9961C175.888 88.9961 180.098 87.4165 179.308 83.7362C178.518 80.0559 176.678 77.6866 176.678 77.6866C176.678 77.6866 181.148 81.1063 186.408 80.3165C191.668 79.5268 194.037 73.2165 195.877 75.3173C197.717 77.4181 200.608 78.737 206.136 75.8465C211.657 72.9559 219.017 58.7559 212.976 54.8071C206.926 50.8661 197.465 58.748 194.306 59.5378C191.147 60.3275 188.785 55.0677 181.685 57.1685C174.585 59.2693 169.854 64.2685 169.854 64.2685L169.847 64.2764Z" fill="#263238" stroke="#263238" stroke-width="0.789767" stroke-linecap="round" stroke-linejoin="round"/>
</g>
</g>
<defs>
<clipPath id="clip0_508_1032">
<rect width="390" height="285.433" fill="white" transform="translate(0 0.335693)"/>
</clipPath>
<clipPath id="clip1_508_1032">
<rect width="116.909" height="310.829" fill="white" transform="translate(122.334 53.3143)"/>
</clipPath>
</defs>
</svg>
