<svg width="390" height="286" viewBox="0 0 390 286" fill="none" xmlns="http://www.w3.org/2000/svg">
<g clip-path="url(#clip0_508_982)">
<rect y="0.00012207" width="390" height="285.433" rx="17" fill="#FC9B84"/>
<g clip-path="url(#clip1_508_982)">
<path d="M206.505 259.319C206.505 259.319 220.765 292.139 220.645 293.689C220.525 295.239 218.145 308.809 223.175 320.639C228.205 332.469 247.165 374.759 248.515 377.459C249.855 380.159 250.485 382.029 252.555 382.199C254.615 382.359 262.775 377.819 266.445 377.329C270.115 376.839 275.725 374.949 278.195 373.329C280.665 371.709 284.665 367.089 281.805 367.129C278.945 367.159 274.775 367.349 272.195 367.139C269.615 366.929 262.475 365.329 259.515 363.269C256.565 361.219 255.295 360.859 255.095 360.059C254.895 359.269 243.975 317.099 243.775 309.809C243.575 302.519 242.085 288.639 242.025 282.919C241.965 277.199 239.085 254.639 237.255 248.259C235.425 241.879 234.335 236.079 234.335 236.079L198.395 237.369L206.515 259.309L206.505 259.319Z" fill="#B9B9B9" stroke="#262A38" stroke-linecap="round" stroke-linejoin="round"/>
<path d="M223.175 320.649C225.395 325.859 230.315 336.999 235.245 348.049C239.975 347.119 246.135 345.439 250.685 342.529C247.555 329.769 243.895 314.019 243.775 309.829C243.575 302.539 242.085 288.659 242.025 282.939C241.965 277.219 239.085 254.659 237.255 248.279C235.425 241.899 234.335 236.099 234.335 236.099L198.395 237.389L206.515 259.329C206.515 259.329 220.775 292.149 220.655 293.699C220.535 295.249 218.155 308.819 223.185 320.649H223.175Z" fill="#262A38" stroke="#262A38" stroke-linecap="round" stroke-linejoin="round"/>
<path d="M177.373 230.509L181.383 287.709C181.383 287.709 168.803 301.339 166.603 305.179C164.403 309.019 150.983 340.309 147.733 347.389C144.483 354.469 136.343 362.579 137.123 364.279C137.903 365.979 148.233 376.579 151.903 378.229C155.573 379.879 163.933 382.319 165.123 381.469C166.313 380.609 165.323 378.619 165.323 378.619C165.323 378.619 160.653 374.419 160.093 373.009C159.533 371.599 155.283 362.259 155.493 359.409C155.693 356.559 159.923 349.899 162.263 346.869C164.593 343.839 197.163 301.699 201.113 294.479C205.063 287.259 206.413 280.099 206.413 280.099L217.723 239.189C217.723 239.189 195.963 238.489 177.383 230.519L177.373 230.509Z" fill="#B9B9B9" stroke="#262A38" stroke-linecap="round" stroke-linejoin="round"/>
<path d="M206.403 280.089L217.713 239.179C217.713 239.179 195.953 238.479 177.373 230.509L181.383 287.709C181.383 287.709 168.803 301.339 166.603 305.179C165.033 307.919 156.373 327.819 151.973 337.839C154.333 340.239 158.153 343.389 163.343 345.489C169.263 338.199 197.463 301.109 201.093 294.479C205.043 287.259 206.393 280.099 206.393 280.099L206.403 280.089Z" fill="#262A38" stroke="#262A38" stroke-linecap="round" stroke-linejoin="round"/>
<path d="M227.244 108.399C227.244 108.399 220.754 120.739 220.084 125.939C219.414 131.139 231.244 146.099 232.334 151.189C233.434 156.279 227.254 174.059 227.324 176.319C227.394 178.579 246.394 232.149 246.394 232.149C246.394 232.149 246.144 238.389 219.234 243.249C192.314 248.109 170.914 230.889 170.914 230.889C170.914 230.889 185.914 184.029 186.414 177.809C186.914 171.589 186.084 150.499 189.674 140.029C193.264 129.559 202.754 117.299 204.424 115.179C206.094 113.059 206.544 110.589 206.644 109.349C206.744 108.109 208.704 99.249 208.704 99.249L227.244 108.399Z" fill="#FBA642" stroke="#262A38" stroke-linecap="round" stroke-linejoin="round"/>
<path d="M220.093 125.939C220.763 120.739 227.253 108.399 227.253 108.399L208.713 99.249C208.713 99.249 206.753 108.099 206.653 109.349C206.553 110.589 206.103 113.059 204.433 115.179C203.373 116.519 199.203 121.909 195.363 128.339C197.723 126.629 201.663 124.609 206.633 125.139C212.793 125.789 222.563 137.219 227.883 142.459C224.193 136.349 219.673 129.219 220.093 125.949V125.939Z" fill="#E8AD9D" stroke="#262A38" stroke-linecap="round" stroke-linejoin="round"/>
<path d="M240.015 65.9691C240.015 65.9691 243.025 78.6991 242.615 81.2091C242.205 83.7191 240.225 84.6191 240.845 87.4191C241.465 90.2191 245.685 93.0991 245.605 94.1491C245.525 95.1991 241.025 98.4391 241.025 98.4391C241.025 98.4391 238.405 110.089 236.865 110.809C235.325 111.529 227.525 111.119 224.665 109.839C221.805 108.549 218.345 106.799 218.345 106.799C218.345 106.799 214.905 94.2491 215.115 86.2191C215.335 78.1891 222.985 77.7391 226.625 74.6491C230.265 71.5591 239.115 63.9991 240.015 65.9791V65.9691Z" fill="#E8AD9D" stroke="#262A38" stroke-linecap="round" stroke-linejoin="round"/>
<path d="M231.004 96.4091C231.004 96.4091 232.584 99.3891 236.394 100.339" stroke="#262A38" stroke-linecap="round" stroke-linejoin="round"/>
<path d="M237.644 86.2491C237.554 87.3491 237.054 88.2091 236.524 88.1691C235.994 88.1291 235.634 87.1991 235.714 86.0991C235.804 84.9991 236.304 84.1391 236.834 84.1791C237.364 84.2191 237.724 85.1491 237.644 86.2491Z" fill="black"/>
<path d="M233.895 81.219C233.895 81.219 237.505 78.139 240.525 80.969" stroke="#262A38" stroke-linecap="round" stroke-linejoin="round"/>
<path d="M219.554 83.599C219.554 83.599 230.544 78.549 235.204 73.199C239.864 67.859 243.274 64.949 243.034 62.599C242.794 60.249 223.284 50.029 213.254 51.129C203.214 52.229 196.354 55.919 188.714 74.789C181.074 93.659 179.704 102.859 183.334 105.059C186.974 107.259 201.104 113.249 210.374 113.779C219.644 114.309 222.044 113.439 222.044 113.439C222.044 113.439 216.834 93.759 219.554 83.599Z" fill="#262A38" stroke="#262A38" stroke-linecap="round" stroke-linejoin="round"/>
<path d="M180.143 172.729C180.143 172.729 171.733 142.339 174.363 129.399C176.993 116.459 184.513 122.829 186.153 129.709C188.873 141.149 190.583 152.919 192.493 164.509C193.573 171.019 194.693 177.789 195.573 184.429C196.403 190.729 198.153 198.239 194.743 204.079C192.573 207.809 188.833 206.929 186.503 203.879C184.173 200.839 183.883 196.359 183.223 192.699C182.033 186.069 181.043 179.399 180.153 172.719L180.143 172.729Z" fill="#B9B9B9" stroke="#262A38" stroke-linecap="round" stroke-linejoin="round"/>
<path d="M184.943 137.869C184.943 137.869 176.873 138.649 176.053 140.409C175.233 142.169 181.403 142.049 184.523 140.669C187.643 139.289 186.753 138.039 184.943 137.879V137.869Z" fill="#B9B9B9" stroke="#262A38" stroke-linecap="round" stroke-linejoin="round"/>
<path d="M187.173 152.069C187.173 152.069 179.103 152.849 178.283 154.609C177.463 156.369 183.633 156.249 186.753 154.869C189.873 153.479 188.983 152.239 187.173 152.079V152.069Z" fill="#B9B9B9" stroke="#262A38" stroke-linecap="round" stroke-linejoin="round"/>
<path d="M189.404 166.279C189.404 166.279 181.334 167.059 180.514 168.819C179.694 170.579 185.864 170.459 188.984 169.079C192.104 167.689 191.214 166.449 189.404 166.289V166.279Z" fill="#B9B9B9" stroke="#262A38" stroke-linecap="round" stroke-linejoin="round"/>
<path d="M191.623 180.479C191.623 180.479 183.553 181.259 182.733 183.019C181.913 184.779 188.083 184.659 191.203 183.279C194.323 181.889 193.433 180.649 191.623 180.489V180.479Z" fill="#B9B9B9" stroke="#262A38" stroke-linecap="round" stroke-linejoin="round"/>
<path d="M168.024 168.709C168.024 168.709 158.704 147.829 157.144 148.529C155.594 149.239 157.114 155.189 157.114 155.189C157.114 155.189 149.774 151.279 148.164 152.639C146.554 154.009 152.364 156.299 152.364 156.299C152.364 156.299 137.334 156.929 136.844 158.889C136.354 160.849 149.074 160.029 149.074 160.029C149.074 160.029 140.564 166.509 140.064 168.629C139.564 170.749 148.984 165.349 148.984 165.349C148.984 165.349 139.354 177.569 142.774 182.669C146.194 187.769 154.034 162.589 154.034 162.589C154.034 162.589 153.784 169.889 155.404 168.359C157.024 166.819 160.124 163.409 160.124 163.409C160.124 163.409 157.554 166.369 159.504 167.019C161.454 167.669 162.674 166.939 162.674 166.939L165.364 170.819L168.034 168.699L168.024 168.709Z" fill="#FBA642" stroke="#262A38" stroke-linecap="round" stroke-linejoin="round"/>
<path d="M170.613 172.219C170.613 172.219 159.173 142.829 160.483 129.689C161.793 116.549 169.913 122.129 172.243 128.809C176.113 139.919 178.993 151.459 182.063 162.799C183.793 169.169 185.593 175.789 187.133 182.309C188.593 188.489 191.093 195.789 188.293 201.939C186.503 205.869 182.703 205.369 180.073 202.569C177.453 199.779 176.703 195.349 175.683 191.779C173.823 185.309 172.163 178.769 170.613 172.219Z" fill="#B9B9B9" stroke="#262A38" stroke-linecap="round" stroke-linejoin="round"/>
<path d="M171.875 137.059C171.875 137.059 163.925 138.649 163.285 140.479C162.645 142.309 168.775 141.579 171.745 139.879C174.715 138.179 173.705 137.039 171.875 137.059Z" fill="#B9B9B9" stroke="#262A38" stroke-linecap="round" stroke-linejoin="round"/>
<path d="M175.525 150.959C175.525 150.959 167.575 152.549 166.935 154.379C166.295 156.209 172.425 155.479 175.395 153.779C178.365 152.079 177.355 150.939 175.525 150.959Z" fill="#B9B9B9" stroke="#262A38" stroke-linecap="round" stroke-linejoin="round"/>
<path d="M179.176 164.869C179.176 164.869 171.226 166.459 170.586 168.289C169.946 170.119 176.076 169.389 179.046 167.689C182.016 165.989 181.006 164.849 179.176 164.869Z" fill="#B9B9B9" stroke="#262A38" stroke-linecap="round" stroke-linejoin="round"/>
<path d="M182.824 178.779C182.824 178.779 174.874 180.369 174.234 182.199C173.594 184.029 179.724 183.299 182.694 181.599C185.664 179.899 184.654 178.759 182.824 178.779Z" fill="#B9B9B9" stroke="#262A38" stroke-linecap="round" stroke-linejoin="round"/>
<path d="M160.404 166.569L219.394 175.949C219.394 175.949 219.464 243.479 219.334 248.399C219.204 253.319 221.464 255.119 207.914 254.759C187.624 254.219 161.824 249.789 152.264 245.909C142.704 242.029 140.804 239.799 141.824 236.769C142.844 233.729 160.404 166.569 160.404 166.569Z" fill="#D6D6D6" stroke="#262A38" stroke-linecap="round" stroke-linejoin="round"/>
<path d="M171.414 168.479C171.414 168.479 194.414 130.839 199.784 128.669C205.154 126.499 213.424 130.279 215.014 136.379C216.604 142.479 215.064 174.819 215.064 174.819L211.984 174.309C211.984 174.309 213.774 138.869 211.994 135.089C210.214 131.309 203.914 128.989 200.414 130.529C196.914 132.069 175.804 168.819 175.804 168.819L171.414 168.469V168.479Z" fill="#D6D6D6" stroke="#262A38" stroke-linecap="round" stroke-linejoin="round"/>
<path d="M221.345 170.459C221.345 170.459 218.505 153.459 215.205 142.239C211.905 131.029 203.465 128.719 197.235 133.819C191.005 138.919 197.674 160.419 201.924 171.479C206.174 182.539 215.145 201.429 217.495 204.179C219.835 206.929 221.205 207.269 223.305 204.409C225.405 201.549 237.005 167.049 237.985 160.609C238.965 154.159 236.485 144.409 235.444 139.899C234.404 135.389 229.734 135.479 228.284 133.269C226.834 131.059 222.694 130.259 222.144 131.379C221.594 132.499 220.444 135.209 220.444 135.209C220.444 135.209 218.255 136.429 218.815 138.109C219.385 139.789 221.175 140.629 222.555 143.769C223.934 146.909 225.895 148.699 226.995 149.479C228.095 150.269 232.354 151.199 232.354 151.199L222.514 176.379L221.354 170.459H221.345Z" fill="#E8AD9D" stroke="#262A38" stroke-linecap="round" stroke-linejoin="round"/>
<path d="M222.504 176.379L225.554 185.579" stroke="#262A38" stroke-linecap="round" stroke-linejoin="round"/>
<path d="M220.434 135.199C220.434 135.199 221.144 135.499 221.684 136.129C222.224 136.759 224.564 138.869 224.564 138.869" stroke="#262A38" stroke-linecap="round" stroke-linejoin="round"/>
<path d="M223.195 137.429L224.245 135.449" stroke="#262A38" stroke-linecap="round" stroke-linejoin="round"/>
<path d="M177.831 224.509C177.651 224.479 177.501 224.459 177.341 224.429C174.561 223.989 171.781 223.539 169.001 223.109C167.301 222.839 166.111 221.929 165.481 220.329C164.821 218.649 164.181 216.959 163.541 215.269C163.531 215.229 163.531 215.189 163.531 215.199C168.511 215.989 173.501 216.789 178.491 217.569C178.831 217.619 178.961 217.719 178.891 218.089C178.551 220.099 178.241 222.119 177.921 224.139C177.901 224.249 177.861 224.359 177.821 224.509H177.831Z" fill="#262A38"/>
<path d="M186.622 216.339C186.482 217.219 186.362 217.969 186.232 218.769C186.442 218.809 186.602 218.859 186.772 218.879C188.632 219.179 190.482 219.479 192.342 219.759C192.672 219.809 192.842 219.929 192.962 220.249C193.412 221.479 193.902 222.699 194.362 223.929C195.012 225.649 193.852 227.049 192.032 226.759C189.902 226.419 187.772 226.079 185.642 225.749C185.502 225.729 185.362 225.699 185.162 225.669C185.032 226.459 184.912 227.229 184.792 227.999C184.752 228.009 184.722 228.019 184.682 228.029C183.012 225.789 181.352 223.559 179.652 221.269C181.952 219.639 184.242 218.019 186.622 216.329V216.339Z" fill="#262A38"/>
<path d="M174.223 203.279C174.483 206.119 174.743 208.889 175.013 211.779C174.323 211.229 173.733 210.749 173.093 210.239C172.983 210.359 172.873 210.469 172.783 210.589C171.583 212.069 170.373 213.549 169.193 215.039C168.983 215.299 168.793 215.389 168.453 215.329C167.193 215.109 165.923 214.869 164.653 214.729C162.833 214.519 162.123 212.579 163.313 211.219C164.723 209.589 166.043 207.879 167.393 206.209C167.483 206.099 167.563 205.979 167.673 205.849C167.043 205.339 166.433 204.839 165.753 204.279C168.623 203.949 171.403 203.619 174.233 203.289L174.223 203.279Z" fill="#262A38"/>
<path d="M172.322 200.109C173.032 199.229 173.712 198.389 174.392 197.559C175.602 196.069 176.812 194.569 178.022 193.079C179.112 191.739 180.522 191.229 182.222 191.489C183.882 191.749 185.532 192.009 187.192 192.279C187.322 192.299 187.442 192.319 187.572 192.339C184.282 196.389 181.012 200.419 177.712 204.479C175.912 203.019 174.142 201.589 172.322 200.109Z" fill="#262A38"/>
<path d="M193.592 200.609C194.362 200.319 195.082 200.039 195.902 199.729C194.752 202.389 193.642 204.959 192.522 207.569C189.942 206.389 187.412 205.219 184.762 203.999C185.592 203.679 186.312 203.389 187.072 203.099C186.792 202.349 186.522 201.639 186.242 200.919C185.772 199.679 185.302 198.439 184.812 197.209C184.712 196.969 184.752 196.809 184.912 196.619C185.762 195.579 186.592 194.529 187.452 193.499C188.632 192.079 190.412 192.379 191.072 194.099C191.842 196.099 192.602 198.099 193.372 200.099C193.432 200.259 193.502 200.419 193.592 200.609Z" fill="#262A38"/>
<path d="M189.742 209.999C191.922 209.159 194.042 208.349 196.202 207.519C196.272 207.679 196.342 207.799 196.392 207.929C197.412 210.579 198.422 213.229 199.442 215.879C200.062 217.499 199.862 218.989 198.762 220.349C197.672 221.699 196.582 223.049 195.492 224.389C195.432 224.469 195.352 224.529 195.312 224.569C193.462 219.729 191.612 214.879 189.742 209.989V209.999Z" fill="#262A38"/>
</g>
</g>
<defs>
<clipPath id="clip0_508_982">
<rect width="390" height="285.433" fill="white"/>
</clipPath>
<clipPath id="clip1_508_982">
<rect width="146.95" height="332.16" fill="white" transform="translate(136.334 50.5491)"/>
</clipPath>
</defs>
</svg>
